<svg version="1.1" id="Layer_1" xmlns="http://www.w3.org/2000/svg" x="0" y="0" viewBox="0 0 180 94.1" xml:space="preserve"><style>.st26{fill:#fff}</style><linearGradient id="SVGID_1_" gradientUnits="userSpaceOnUse" x1="-323.033" y1="1538.532" x2="-323.033" y2="1535.082" gradientTransform="rotate(180 -116.872 814.58)"><stop offset=".412" stop-color="#fff"/><stop offset="1" stop-color="#666"/></linearGradient><path fill="url(#SVGID_1_)" d="M.4 90.6h177.7V94H.4z"/><path d="M86 60.8c.8-1.6 1.3-3.4 1.3-5.3 0-6.9-6.2-12.5-13.9-12.5-.8 0-1.6.1-2.3.2-2.4-3.8-7.2-6.4-12.6-6.4-7.8 0-14.1 5.2-14.3 11.8-6.4 2.4-10.9 8-10.9 14.4 0 8.7 8.1 15.7 18.1 15.7 3 0 5.8-.6 8.3-1.8l-1.8 12.3L65.4 79c2.5 1.7 5.7 2.8 9.2 2.8 8.2 0 14.8-5.8 14.8-12.9-.1-3-1.3-5.9-3.4-8.1zM62 75.7c0 .1 0 .1 0 0l-.2.1c.1 0 .1 0 .2-.1z" fill="#caaa0b"/><path d="M126.7 0L74.3 10.2c-4.3 0-7.8 3.7-7.8 8.2v27.1c0 4.6 3.5 8.2 7.8 8.2l20.7-.4-3.3 28.4 14.2-28.6 20.4-.4c4.3 0 7.8-3.7 7.8-8.2l.5-36.4c-.1-4.4-3.6-8.1-7.9-8.1z" fill="#625e5c"/><path d="M124.6 56c-12.8 0-23.2 6.4-23.2 14.2 0 5.3 4.6 9.8 11.6 12.3l5.6 8.8.2-7.3c1.9.3 3.8.5 5.8.5 12.8 0 23.2-6.4 23.2-14.2.1-7.9-10.3-14.3-23.2-14.3z" fill="#e6454a"/><path d="M34.7 28.8l-29.5-.3c-3 .1-5.3 2.6-5.2 5.5l6.5 35c.1 3 2.6 5.3 5.5 5.2l11.5-.1-1.2 11.4 8.2-11.4h3.1c3-.1 5.3-2.6 5.2-5.5L40.2 34c-.1-3-2.5-5.3-5.5-5.2z" fill="#ec8400"/><path d="M165.5 33.1c-11-5-45.6-17-36.3 20.9 3.5 14.1 12 16 24.8 16 2.9 0 5.6 0 8.1-.2l-.4 16.9 6.9-17.7c5.1-1.1 8.6-3.4 9.9-7.8 4.2-15-1.1-22.8-13-28.1z" fill="#55aeaf"/><path class="st26" d="M15.2 51.4c0 .8-.6 1.4-1.4 1.4-.8 0-1.4-.6-1.4-1.4 0-.8.6-1.4 1.4-1.4.8-.1 1.4.6 1.4 1.4z"/><circle class="st26" cx="19.6" cy="51.4" r="1.4"/><circle class="st26" cx="25.4" cy="51.4" r="1.4"/><path class="st26" d="M55.9 63.5c0 .8-.6 1.4-1.4 1.4-.8 0-1.4-.6-1.4-1.4 0-.8.6-1.4 1.4-1.4.8 0 1.4.6 1.4 1.4zm5.8 0c0 .8-.6 1.4-1.4 1.4-.8 0-1.4-.6-1.4-1.4 0-.8.6-1.4 1.4-1.4.8 0 1.4.6 1.4 1.4zm5.8 0c0 .8-.6 1.4-1.4 1.4-.8 0-1.4-.6-1.4-1.4 0-.8.6-1.4 1.4-1.4.7 0 1.4.6 1.4 1.4zM117.6 72.2c0 .8-.6 1.4-1.4 1.4-.8 0-1.4-.6-1.4-1.4 0-.8.6-1.4 1.4-1.4.8 0 1.4.6 1.4 1.4zm5.8 0c0 .8-.6 1.4-1.4 1.4-.8 0-1.4-.6-1.4-1.4 0-.8.6-1.4 1.4-1.4.8 0 1.4.6 1.4 1.4zm5.8 0c0 .8-.6 1.4-1.4 1.4-.8 0-1.4-.6-1.4-1.4 0-.8.6-1.4 1.4-1.4.7 0 1.4.6 1.4 1.4zM151.2 51.7c0 .8-.6 1.4-1.4 1.4-.8 0-1.4-.6-1.4-1.4 0-.8.6-1.4 1.4-1.4.8 0 1.4.6 1.4 1.4zm5.8 0c0 .8-.6 1.4-1.4 1.4-.8 0-1.4-.6-1.4-1.4 0-.8.6-1.4 1.4-1.4.8 0 1.4.6 1.4 1.4zm5.8 0c0 .8-.6 1.4-1.4 1.4-.8 0-1.4-.6-1.4-1.4 0-.8.6-1.4 1.4-1.4.8 0 1.4.6 1.4 1.4zM76.4 29.7V13.1h3.7v14.7h5.5v1.8h-9.2zm22.1-5.6h-7.4V26c0 .5.2.9.5 1.3.4.4.8.6 1.3.6h1.9c1.2 0 1.8-.6 1.8-1.9h1.8c-.3 2.5-1.5 3.7-3.7 3.7H91c-1 0-1.9-.4-2.6-1.1-.7-.7-1.1-1.6-1.1-2.6v-5.5c0-1 .4-1.9 1.1-2.6.7-.7 1.6-1.1 2.6-1.1h3.7c1 0 1.9.4 2.6 1.1s1.1 1.6 1.1 2.6v3.6zm-7.3-1.8h3.7v-1.9c0-.5-.2-.9-.5-1.3-.4-.4-.8-.5-1.3-.5s-.9.2-1.3.5c-.4.4-.5.8-.5 1.3v1.9zm11.1-9.2h3.7v3.7h1.9v1.8H106V26c0 .6.2 1.1.6 1.4.4.3.8.5 1.1.5h.2v1.8H106c-1 0-1.9-.4-2.6-1.1-.7-.7-1.1-1.6-1.1-2.6v-7.4h-1.9v-1.8h1.9v-3.7zm7.4 0h3.7v3.7c0 2.2-1.2 3.4-3.7 3.7v-1.8c1.2 0 1.8-.7 1.9-1.8h-1.9v-3.8zm14.8 7.3h-1.8c-.2-1.2-.7-1.8-1.7-1.8-.6 0-1.1.1-1.5.4s-.5.6-.5 1.1c0 .5.9 1.3 2.7 2.2 1.5.8 2.3 1.4 2.5 1.9.2.5.3 1.1.3 1.7 0 1-.4 1.9-1.1 2.6-.7.7-1.6 1.1-2.6 1.1H119c-2.5 0-3.7-1.2-3.7-3.7h1.9c.1 1.2.7 1.9 1.7 1.9.7 0 1.2-.1 1.5-.4.3-.3.5-.6.5-1.2 0-.5-.9-1.3-2.7-2.2-1.5-.8-2.3-1.4-2.5-1.9-.2-.5-.3-1.1-.3-1.7 0-1 .4-1.9 1.1-2.6.7-.7 1.6-1.1 2.6-1.1h1.8c2.3.1 3.5 1.3 3.6 3.7zM88.4 44c-.1 2.5-1.4 3.7-3.7 3.7H81c-1 0-1.9-.4-2.6-1.1-.7-.7-1.1-1.6-1.1-2.6v-9.2c0-1 .4-1.9 1.1-2.6.7-.7 1.6-1.1 2.6-1.1h3.7c2.3 0 3.5 1.2 3.7 3.7h-1.8c-.1-1.2-.8-1.9-1.8-1.9h-1.9c-.5 0-.9.2-1.3.5-.4.4-.5.8-.5 1.3V44c0 .5.2.9.5 1.3.4.4.8.6 1.3.6h1.9c1.1 0 1.7-.6 1.8-1.9h1.8zm1.9 3.7V31.2H94v5.5c.1-.6.3-1.1.6-1.4.3-.3.7-.5 1.3-.5h1.9c1 0 1.9.4 2.6 1.1s1.1 1.6 1.1 2.6v9.2h-3.7v-9.2c0-.5-.2-.9-.5-1.3-.4-.4-.8-.5-1.3-.5s-.9.2-1.3.5c-.5.4-.7.8-.7 1.3v9.2h-3.7zm20.3-7.3v-1.9c0-.5-.2-.9-.5-1.3-.4-.4-.8-.5-1.3-.5H107c-1.1 0-1.7.6-1.8 1.8h-1.9c.3-2.4 1.5-3.7 3.7-3.7h3.7c1 0 1.9.4 2.6 1.1s1.1 1.6 1.1 2.6v9.2h-3.7v-1.8c-.1 1.2-.8 1.8-1.9 1.8H107c-1 0-1.9-.4-2.6-1.1-.7-.7-1.1-1.6-1.1-2.6s.4-1.9 1.1-2.6c.7-.7 1.6-1.1 2.6-1.1h3.6zm0 1.8h-1.9c-.5 0-.9.2-1.3.5-.4.4-.5.8-.5 1.3s.2.9.5 1.3c.4.4.8.6 1.3.6s1-.2 1.3-.6c.4-.4.5-.8.5-1.3v-1.8zm7.5-11h3.7v3.7h1.9v1.8h-1.9V44c0 .6.2 1.1.6 1.4.4.3.8.5 1.1.5h.2v1.8h-1.9c-1 0-1.9-.4-2.6-1.1-.7-.7-1.1-1.6-1.1-2.6v-7.4h-1.9v-1.8h1.9v-3.6z"/></svg>